# xmcd CD database file
#
# Track frame offsets:
#	150
#	2157
#	11180
#	28365
#	39092
#	54797
#	65107
#	81020
#	85517
#	103937
#	124552
#	139520
#	153330
#	165987
#	180900
#	192340
#
# Disc length: 3441 seconds
#
# Revision: 1
# Processed by: cddbd v1.4PL0 Copyright (c) Steve Scherf et al.
# Submitted via: CDex 1.50
#
DISCID=bc0d6f10
DTITLE=The Twang - Countryfication
DYEAR=2003
DGENRE=Country
TTITLE0=Welcome to Countryfication
TTITLE1=Clint Eastwood
TTITLE2=Sympathy For The Devil
TTITLE3=Oops, I Did It Again
TTITLE4=I Shot The Sheriff
TTITLE5=Born To Be Alive
TTITLE6=Don`t Look Back In Anger
TTITLE7=I`m On Fire
TTITLE8=White Wedding
TTITLE9=Maria
TTITLE10=Staying Alive
TTITLE11=You Shook Me All Night Long
TTITLE12=Blitzkrieg Bop
TTITLE13=Creep
TTITLE14=Gimme All Your Lovin'
TTITLE15=YMCA
EXTD=YEAR: 2003
EXTT0=
EXTT1=
EXTT2=
EXTT3=
EXTT4=
EXTT5=
EXTT6=
EXTT7=
EXTT8=
EXTT9=
EXTT10=
EXTT11=
EXTT12=
EXTT13=
EXTT14=
EXTT15=
PLAYORDER=
